<svg width="16" height="16" viewBox="0 0 16 16" fill="none" xmlns="http://www.w3.org/2000/svg">
<path fill-rule="evenodd" clip-rule="evenodd" d="M3.67096 15.3724V5.61307H0.654582V15.3724H3.67096ZM3.67096 2.15381C3.65299 1.28045 3.07093 0.615479 2.12535 0.615479C1.17952 0.615479 0.561523 1.28045 0.561523 2.15381C0.561523 3.0082 1.16156 3.6924 2.08917 3.6924H2.10714C3.07093 3.6924 3.67096 3.0082 3.67096 2.15381ZM8.59201 15.3724V9.81202C8.59201 9.51444 8.61352 9.21686 8.70103 9.00472C8.94027 8.40984 9.48476 7.79405 10.399 7.79405C11.5967 7.79405 12.3479 8.47378 12.3479 9.81202V15.3724H15.3846V9.66323C15.3846 6.60489 13.752 5.18178 11.5743 5.18178C9.78883 5.18178 9.00509 6.18002 8.56991 6.85945L8.59171 5.55418H5.56023C5.60384 6.48848 5.56023 15.3724 5.56023 15.3724H8.59201Z" fill="#FEFEFE"/>
</svg>
