<svg width="18" height="16" viewBox="0 0 18 16" fill="none" xmlns="http://www.w3.org/2000/svg">
<path fill-rule="evenodd" clip-rule="evenodd" d="M14.8944 1.833C14.2496 1.09993 13.3309 0.632875 12.3141 0.61595C10.3618 0.583456 8.77892 2.23312 8.77892 4.30042C8.77892 4.59382 8.8102 4.87993 8.8705 5.15459C5.93249 4.96401 3.32762 3.4341 1.58413 1.12795C1.27983 1.68055 1.10546 2.32643 1.10546 3.01831C1.10546 4.32809 1.72956 5.49051 2.67811 6.17685C2.09864 6.15127 1.55354 5.97585 1.07694 5.68807C1.0766 5.7038 1.0766 5.71953 1.0766 5.73554C1.0766 7.56465 2.29516 9.09914 3.91235 9.45659C3.61572 9.54065 3.30341 9.58463 2.98103 9.5825C2.75324 9.58099 2.53173 9.55573 2.31592 9.51037C2.76573 11.0104 4.07122 12.105 5.6182 12.1412C4.40834 13.1455 2.8841 13.7437 1.2278 13.7402C0.942454 13.7397 0.661075 13.7212 0.384521 13.6857C1.94899 14.7592 3.80716 15.3842 5.80351 15.3847C12.3058 15.3864 15.8616 9.72783 15.8616 4.8197C15.8616 4.65867 15.8581 4.4985 15.8514 4.33911C16.5421 3.82445 17.1414 3.17918 17.6153 2.44234C16.9814 2.7281 16.3 2.91789 15.585 2.9975C16.3148 2.54834 16.8754 1.82948 17.1393 0.967432C16.4562 1.38169 15.6997 1.67877 14.8944 1.833Z" fill="#FEFEFE"/>
</svg>
