<svg width="22" height="15" viewBox="0 0 22 15" fill="none" xmlns="http://www.w3.org/2000/svg">
<path fill-rule="evenodd" clip-rule="evenodd" d="M21.0221 3.13946C21.0221 3.13946 20.8221 1.73005 20.2088 1.10921C19.4314 0.294743 18.5594 0.29088 18.1597 0.243158C15.2977 0.0361328 11.0045 0.0361328 11.0045 0.0361328H10.9954C10.9954 0.0361328 6.70241 0.0361328 3.84019 0.243158C3.44046 0.29088 2.56896 0.294743 1.79108 1.10921C1.17773 1.73005 0.978207 3.13946 0.978207 3.13946C0.978207 3.13946 0.773682 4.79452 0.773682 6.44958V8.00148C0.773682 9.65631 0.978207 11.3114 0.978207 11.3114C0.978207 11.3114 1.17773 12.7208 1.79108 13.3416C2.56896 14.1563 3.5909 14.1302 4.04608 14.2156C5.68251 14.3727 10.9999 14.4213 10.9999 14.4213C10.9999 14.4213 15.2977 14.4147 18.1597 14.2079C18.5594 14.1602 19.4314 14.1563 20.2088 13.3416C20.8221 12.7208 21.0221 11.3114 21.0221 11.3114C21.0221 11.3114 21.2262 9.65631 21.2262 8.00148V6.44958C21.2262 4.79452 21.0221 3.13946 21.0221 3.13946ZM8.88855 9.88151L8.88764 4.13504L14.4139 7.01816L8.88855 9.88151Z" fill="#FEFEFE"/>
</svg>
